<?xml version="1.0" encoding="UTF-8" standalone="no"?>
<!-- Created with Inkscape (http://www.inkscape.org/) -->

<svg
   width="100mm"
   height="101.177mm"
   viewBox="0 0 100 101.177"
   version="1.1"
   id="svg5"
   inkscape:version="1.2.2 (732a01da63, 2022-12-09)"
   sodipodi:docname="tekstWkolo.svg"
   inkscape:export-filename="tekstWkolo.png"
   inkscape:export-xdpi="177.8"
   inkscape:export-ydpi="177.8"
   xmlns:inkscape="http://www.inkscape.org/namespaces/inkscape"
   xmlns:sodipodi="http://sodipodi.sourceforge.net/DTD/sodipodi-0.dtd"
   xmlns="http://www.w3.org/2000/svg"
   xmlns:svg="http://www.w3.org/2000/svg">
  <sodipodi:namedview
     id="namedview7"
     pagecolor="#ffffff"
     bordercolor="#000000"
     borderopacity="0.25"
     inkscape:showpageshadow="2"
     inkscape:pageopacity="0.0"
     inkscape:pagecheckerboard="0"
     inkscape:deskcolor="#d1d1d1"
     inkscape:document-units="mm"
     showgrid="false"
     inkscape:zoom="0.76880612"
     inkscape:cx="106.00852"
     inkscape:cy="412.32762"
     inkscape:window-width="1920"
     inkscape:window-height="1017"
     inkscape:window-x="-8"
     inkscape:window-y="-8"
     inkscape:window-maximized="1"
     inkscape:current-layer="layer1" />
  <defs
     id="defs2" />
  <g
     inkscape:label="Warstwa 1"
     inkscape:groupmode="layer"
     id="layer1">
    <g
       aria-label=" | Wszystko w 1 miejscu | Wszystko w 1 rękach"
       transform="matrix(2.1890475,0,0,2.1890475,-121.81383,-176.1957)"
       id="text1108"
       style="font-weight:500;font-size:5.3975px;font-family:Montserrat;-inkscape-font-specification:'Montserrat Medium';text-align:center;text-anchor:middle;stroke-width:120">
      <path
         d="m 56.584554,96.846405 0.140422,-0.459395 4.831395,1.476797 -0.140422,0.459395 z"
         id="path2621" />
      <path
         d="m 60.111232,89.755346 2.713988,2.916273 -0.271063,0.497711 -3.142795,-0.53773 2.156641,2.348449 -0.276227,0.507191 -3.922156,-0.697904 0.2659,-0.488231 3.185033,0.573026 -2.188552,-2.402706 0.237503,-0.436089 3.209579,0.56181 -2.213099,-2.39149 z"
         id="path2623" />
      <path
         d="m 64.399626,90.803294 q -0.231225,0.263859 -0.513673,0.446948 -0.286507,0.179531 -0.517059,0.221503 l -0.16622,-0.432731 q 0.22599,-0.05315 0.464746,-0.202755 0.238756,-0.149609 0.420179,-0.356638 0.448221,-0.511481 0.155945,-0.767608 -0.09743,-0.08537 -0.21473,-0.06617 -0.117306,0.01921 -0.234152,0.103407 -0.117349,0.07658 -0.317017,0.238916 -0.268262,0.224227 -0.466883,0.344417 -0.195064,0.11613 -0.424067,0.123576 -0.229003,0.0074 -0.456328,-0.191764 -0.292276,-0.256126 -0.25339,-0.652653 0.03483,-0.400085 0.394113,-0.810082 0.188538,-0.215147 0.429847,-0.384049 0.241309,-0.168903 0.451564,-0.228661 l 0.162663,0.43679 q -0.401719,0.114453 -0.714762,0.471678 -0.216995,0.247623 -0.249642,0.448669 -0.03265,0.201046 0.101314,0.318437 0.105543,0.09249 0.230466,0.07278 0.124922,-0.01971 0.245828,-0.100352 0.124463,-0.0847 0.331748,-0.247536 0.272321,-0.22067 0.463828,-0.332741 0.191005,-0.119688 0.412391,-0.126631 0.221386,-0.0069 0.440592,0.185151 0.292275,0.256126 0.246276,0.660772 -0.0465,0.397029 -0.423577,0.827324 z"
         id="path2625" />
      <path
         d="m 66.998914,87.704471 0.277857,0.323442 -1.817826,1.561625 -0.218065,-0.253841 -0.08669,-2.69352 -1.256921,1.079772 -0.277857,-0.323442 1.760508,-1.512384 0.221582,0.257934 0.08318,2.689426 z"
         id="path2627" />
      <path
         d="m 68.421311,83.892263 0.50198,3.402089 q 0.07754,0.467768 -0.03773,0.75076 -0.110701,0.280117 -0.403066,0.464104 -0.17816,0.112117 -0.384557,0.159098 -0.198953,0.04867 -0.377585,0.008 l -0.01969,-0.446778 q 0.299414,0.06029 0.546097,-0.09495 0.159887,-0.100618 0.210335,-0.253535 0.05789,-0.151223 0.01532,-0.411413 l -0.02871,-0.217896 -2.589731,-1.743878 0.456821,-0.28748 2.064034,1.405082 -0.382934,-2.463009 z"
         id="path2629" />
      <path
         d="m 71.130965,85.843658 q -0.321067,0.141432 -0.654427,0.188013 -0.335535,0.04164 -0.562226,-0.01775 l 0.03221,-0.462437 q 0.227279,0.04733 0.506892,0.01263 0.279613,-0.0347 0.531527,-0.145671 0.622376,-0.27416 0.465713,-0.629803 -0.05222,-0.118548 -0.166654,-0.150711 -0.114434,-0.03216 -0.255916,-0.0052 -0.138718,0.01982 -0.388281,0.08257 -0.337887,0.08986 -0.568692,0.114858 -0.225866,0.02282 -0.436564,-0.0672 -0.210697,-0.09002 -0.332546,-0.366636 -0.156662,-0.355643 0.04615,-0.698594 0.200631,-0.34789 0.69952,-0.567653 0.261793,-0.115321 0.551872,-0.166429 0.29008,-0.05111 0.505892,-0.01642 l -0.03715,0.464612 q -0.412454,-0.06603 -0.847129,0.125449 -0.301309,0.132729 -0.415856,0.301146 -0.114546,0.168418 -0.04274,0.331421 0.05657,0.128427 0.178121,0.163354 0.121549,0.03493 0.265207,0.01293 0.148598,-0.02417 0.405276,-0.08416 0.340062,-0.08492 0.560989,-0.105567 0.22369,-0.02776 0.427272,0.0595 0.203582,0.08726 0.321079,0.353993 0.156663,0.355644 -0.05602,0.702946 -0.209923,0.340187 -0.733509,0.570829 z"
         id="path2631" />
      <path
         d="m 74.367069,84.51091 q -0.08123,0.125253 -0.226448,0.22436 -0.146744,0.09393 -0.317585,0.14432 -0.41416,0.122159 -0.707608,-0.03326 -0.293449,-0.155424 -0.415608,-0.569583 l -0.444354,-1.506507 -0.46593,0.137429 -0.120632,-0.408983 0.46593,-0.137429 -0.177131,-0.600532 0.496992,-0.146591 0.177131,0.600532 0.786903,-0.232102 0.120633,0.408983 -0.786904,0.232102 0.438246,1.485798 q 0.06566,0.222611 0.209498,0.309616 0.149015,0.08548 0.356095,0.0244 0.227788,-0.06719 0.3501,-0.243949 z"
         id="path2633" />
      <path
         d="m 75.93465,83.047691 -0.508004,0.630508 0.113012,0.774435 -0.512729,0.07482 -0.578311,-3.962971 0.512729,-0.07482 0.370992,2.542283 1.337769,-1.635251 0.619548,-0.09041 -1.02034,1.343469 1.55092,1.470078 -0.63023,0.09197 z"
         id="path2635" />
      <path
         d="m 79.435991,84.206583 q -0.426233,-0.01205 -0.7608,-0.210498 -0.334568,-0.198448 -0.519495,-0.533055 -0.179379,-0.339851 -0.167481,-0.760687 0.0119,-0.420837 0.210041,-0.744614 0.20369,-0.32902 0.548783,-0.502851 0.345246,-0.179227 0.771478,-0.167176 0.426233,0.01205 0.755405,0.210346 0.33472,0.193052 0.514099,0.532902 0.184927,0.334608 0.173029,0.755445 -0.0119,0.420837 -0.215589,0.749856 -0.198142,0.323777 -0.543388,0.503004 -0.33985,0.179379 -0.766082,0.167328 z m 0.01281,-0.453209 q 0.275163,0.0078 0.494485,-0.110211 0.22487,-0.123234 0.35537,-0.34633 0.130653,-0.228491 0.139042,-0.525235 0.0084,-0.296744 -0.109296,-0.526857 -0.117533,-0.235508 -0.335234,-0.365856 -0.212305,-0.130194 -0.487467,-0.137974 -0.275163,-0.0078 -0.499881,0.110059 -0.219322,0.117991 -0.35537,0.34633 -0.130499,0.223096 -0.138889,0.519839 -0.0084,0.296744 0.109143,0.532253 0.123082,0.230265 0.335234,0.365855 0.217701,0.130348 0.492863,0.138127 z"
         id="path2637" />
      <path
         d="m 88.089747,83.157 -1.905759,2.386143 -0.47192,-0.154509 -0.109689,-2.319042 -1.470219,1.801774 -0.47192,-0.154509 -0.120421,-3.049521 0.466791,0.152829 0.08123,2.423312 1.529455,-1.895968 0.415496,0.136035 0.09326,2.43861 1.522555,-1.909586 z"
         id="path2639" />
      <path
         d="m 91.72233,84.26967 -2.040623,3.179785 -0.449713,-0.288603 1.787003,-2.784582 -0.717723,-0.460598 0.25362,-0.395202 z"
         id="path2641" />
      <path
         d="m 96.300726,89.653653 q 0.357805,0.404111 0.330947,0.846022 -0.02328,0.445952 -0.483966,0.85385 l -1.232539,1.091305 -0.343492,-0.387947 1.188086,-1.051946 q 0.311166,-0.27551 0.339959,-0.560534 0.03237,-0.280983 -0.20378,-0.547696 -0.261197,-0.295001 -0.600944,-0.304178 -0.335707,-0.01276 -0.679201,0.291378 l -1.103223,0.976808 -0.343493,-0.387947 1.188087,-1.051946 q 0.311165,-0.27551 0.339959,-0.560534 0.03237,-0.280983 -0.20378,-0.547696 -0.261198,-0.295001 -0.600945,-0.304178 -0.335706,-0.01276 -0.6792,0.291378 l -1.103223,0.976808 -0.343493,-0.387947 2.141788,-1.896366 0.329181,0.371782 -0.319248,0.282666 q 0.269449,-0.02951 0.522481,0.08528 0.257072,0.111215 0.471755,0.353682 0.22184,0.250549 0.292558,0.533973 0.07072,0.283425 -0.03023,0.56024 0.293232,-0.04336 0.587938,0.07779 0.298283,0.12519 0.538013,0.395945 z"
         id="path2643" />
      <path
         d="m 97.778982,91.870691 0.265756,0.444818 -2.455767,1.467197 -0.265757,-0.444818 z m 0.605498,-0.05996 q -0.07751,-0.129738 -0.04671,-0.267604 0.03357,-0.133233 0.154046,-0.205209 0.120471,-0.07198 0.253704,-0.0384 0.140635,0.03544 0.218147,0.165178 0.07751,0.129739 0.04394,0.262972 -0.02617,0.135098 -0.146644,0.207074 -0.125105,0.07474 -0.265739,0.0393 -0.133233,-0.03357 -0.210745,-0.163313 z"
         id="path2645" />
      <path
         d="m 98.427791,96.433126 q -0.05435,0.0239 -0.14763,0.05313 l -0.934311,-2.12456 q -0.326304,0.196565 -0.425773,0.546919 -0.09236,0.353123 0.07712,0.738508 0.206417,0.46938 0.648654,0.616888 l -0.191172,0.396579 q -0.285737,-0.08661 -0.511767,-0.305615 -0.223858,-0.214062 -0.367264,-0.540158 -0.182517,-0.41503 -0.155761,-0.81006 0.0317,-0.397203 0.259806,-0.709788 0.230284,-0.307644 0.615669,-0.477124 0.380444,-0.167307 0.760652,-0.134033 0.382381,0.03821 0.680738,0.260789 0.305471,0.225343 0.470605,0.600847 0.165134,0.375503 0.120401,0.743061 -0.03762,0.370326 -0.272248,0.668088 -0.232456,0.302704 -0.627723,0.476529 z m 0.379363,-1.71168 q -0.149925,-0.340918 -0.459562,-0.481879 -0.307465,-0.13602 -0.660825,-0.02779 l 0.738758,1.679884 q 0.313654,-0.185105 0.419046,-0.508583 0.112507,-0.32071 -0.03742,-0.661627 z"
         id="path2647" />
      <path
         d="m 96.174365,97.658467 q -0.05382,-0.181084 -0.05856,-0.3486 -0.0047,-0.167517 0.04729,-0.295597 l 0.430532,0.0466 q -0.08321,0.193657 -0.0094,0.442001 0.05843,0.196605 0.21336,0.263177 0.15129,0.07328 0.389285,0.0025 l 2.876648,-0.85497 0.14762,0.496687 -2.866299,0.851894 q -0.424254,0.126093 -0.735083,-0.02928 -0.310829,-0.155376 -0.435384,-0.574455 z m 4.490685,-0.653346 q -0.0431,-0.144867 0.0209,-0.270849 0.0654,-0.120807 0.19996,-0.160788 0.13452,-0.03998 0.25533,0.02547 0.12752,0.06909 0.17058,0.213954 0.0431,0.144867 -0.0224,0.265674 -0.0587,0.124444 -0.19325,0.164425 -0.1397,0.04152 -0.26722,-0.02757 -0.1208,-0.06545 -0.16386,-0.210317 z"
         id="path2649" />
      <path
         d="m 97.843466,99.992449 q -0.06227,-0.345268 -0.02944,-0.680262 0.03814,-0.335951 0.148986,-0.542417 l 0.442015,0.139669 q -0.09927,0.209862 -0.131048,0.489822 -0.03178,0.279959 0.01707,0.550862 0.1207,0.669287 0.50315,0.600317 0.127484,-0.023 0.185564,-0.1267 0.05808,-0.10371 0.06504,-0.24757 0.01323,-0.1395 0.01071,-0.396819 -0.0082,-0.349535 0.02159,-0.579773 0.03074,-0.224925 0.167623,-0.408664 0.136886,-0.183739 0.434347,-0.237383 0.382457,-0.06897 0.668337,0.208546 0.2912,0.27656 0.38795,0.813053 0.0508,0.281526 0.0325,0.57551 -0.0183,0.29397 -0.10258,0.49565 l -0.44297,-0.14498 q 0.16083,-0.3855 0.0765,-0.852941 -0.0584,-0.324021 -0.19532,-0.47484 -0.136896,-0.150819 -0.312186,-0.119208 -0.138107,0.02491 -0.200541,0.134889 -0.06243,0.109981 -0.07471,0.254794 -0.01132,0.150124 -0.01314,0.413713 0.0029,0.350493 -0.02882,0.570103 -0.02542,0.22397 -0.157956,0.40144 -0.132532,0.17747 -0.41937,0.2292 -0.382451,0.069 -0.670251,-0.21917 -0.28153,-0.28379 -0.383071,-0.846841 z"
         id="path2651" />
      <path
         d="m 98.152152,103.09949 q -0.0119,-0.43703 0.167533,-0.78749 0.179583,-0.34506 0.503418,-0.54826 0.32923,-0.20335 0.750079,-0.21482 0.420849,-0.0115 0.755268,0.17381 0.33981,0.18513 0.53251,0.52005 0.19825,0.34017 0.21016,0.7772 0.0106,0.38848 -0.13766,0.69489 -0.14809,0.3118 -0.44029,0.48715 l -0.26432,-0.38697 q 0.20136,-0.14047 0.29844,-0.34289 0.0971,-0.20243 0.0905,-0.44523 -0.008,-0.28056 -0.13791,-0.50379 -0.13013,-0.21784 -0.36566,-0.34101 -0.22999,-0.11793 -0.526742,-0.10984 -0.302148,0.008 -0.530774,0.13864 -0.223084,0.13567 -0.341155,0.36026 -0.117924,0.23 -0.110282,0.51056 0.0066,0.2428 0.114566,0.43964 0.107952,0.19684 0.316655,0.32614 l -0.237464,0.40064 q -0.301308,-0.15918 -0.47155,-0.46232 -0.1647,-0.29788 -0.175282,-0.68636 z"
         id="path2653" />
      <path
         d="m 100.61039,107.99528 -2.82969,-0.41993 0.0721,-0.48585 0.427122,0.0634 q -0.195922,-0.18731 -0.280688,-0.46181 -0.08022,-0.26836 -0.03585,-0.56735 0.08399,-0.56594 0.441982,-0.84566 0.363335,-0.27894 0.971984,-0.18861 l 1.62841,0.24166 -0.0761,0.51255 -1.569674,-0.23295 q -0.411105,-0.061 -0.653982,0.10484 -0.237539,0.16665 -0.292209,0.53504 -0.06022,0.40577 0.150516,0.67713 0.210733,0.27136 0.659211,0.33792 l 1.462898,0.2171 z"
         id="path2655" />
      <path
         d="m 100.79429,111.38559 -0.1681,0.45 -4.732649,-1.76786 0.168099,-0.45001 z"
         id="path2657" />
      <path
         d="m 95.830191,119.3906 -2.322267,-3.23689 0.331989,-0.45932 3.049234,0.93192 -1.841424,-2.60297 0.338313,-0.46807 3.801992,1.18964 -0.325666,0.45057 -3.086655,-0.97229 1.866198,2.66084 -0.290886,0.40245 -3.112426,-0.96428 1.891969,2.65282 z"
         id="path2659" />
      <path
         d="m 91.710233,117.80838 q 0.262606,-0.23265 0.565858,-0.37872 0.306831,-0.14203 0.540832,-0.15464 l 0.110415,0.45022 q -0.230883,0.0243 -0.486575,0.14262 -0.255693,0.11836 -0.461738,0.3009 -0.509051,0.45098 -0.251349,0.74187 0.0859,0.097 0.204691,0.0927 0.11879,-0.004 0.245308,-0.0731 0.126057,-0.0612 0.344575,-0.1971 0.294357,-0.18867 0.506531,-0.28289 0.208133,-0.0906 0.436251,-0.0692 0.228118,0.0214 0.428553,0.24769 0.257702,0.29088 0.169202,0.67936 -0.08492,0.39252 -0.49297,0.75401 -0.214125,0.1897 -0.47478,0.32688 -0.260654,0.13717 -0.47676,0.16999 l -0.106375,-0.4538 q 0.412932,-0.063 0.768461,-0.37793 0.246445,-0.21833 0.304144,-0.41367 0.0577,-0.19534 -0.06041,-0.32866 -0.09306,-0.10504 -0.219469,-0.10122 -0.12641,0.004 -0.256506,0.0686 -0.134137,0.0683 -0.360275,0.20379 -0.297937,0.18463 -0.50203,0.2717 -0.204554,0.0947 -0.425052,0.0737 -0.220499,-0.021 -0.413776,-0.23915 -0.257702,-0.29089 -0.161122,-0.68652 0.09612,-0.38802 0.52437,-0.76741 z"
         id="path2661" />
      <path
         d="m 88.742519,120.55638 -0.235106,-0.35573 1.999294,-1.32135 0.184514,0.27918 -0.251736,2.68313 1.382395,-0.91364 0.235106,0.35573 -1.936253,1.27969 -0.18749,-0.28368 0.254712,-2.67863 z"
         id="path2663" />
      <path
         d="m 86.853238,124.16027 -0.07124,-3.43818 q -0.01825,-0.4738 0.131611,-0.7401 0.144966,-0.26402 0.458102,-0.40988 0.190818,-0.0889 0.401477,-0.1096 0.203487,-0.0233 0.37561,0.0394 l -0.03651,0.44572 q -0.289485,-0.0974 -0.553693,0.0257 -0.171247,0.0798 -0.240479,0.22515 -0.0764,0.14276 -0.06681,0.40624 l 0.0011,0.21977 2.35051,2.05498 -0.489275,0.2279 -1.871467,-1.65291 0.07093,2.49159 z"
         id="path2665" />
      <path
         d="m 84.409603,121.8837 q 0.336334,-0.0998 0.672906,-0.10402 0.338108,9.9e-4 0.555505,0.0885 l -0.09025,0.45469 q -0.2195,-0.0756 -0.501257,-0.0764 -0.281756,-8.2e-4 -0.545649,0.0775 -0.651969,0.19352 -0.541384,0.56608 0.03686,0.12418 0.146328,0.17051 0.109467,0.0463 0.253216,0.0374 0.14011,-0.002 0.395592,-0.033 0.346519,-0.0465 0.578634,-0.0422 0.226941,0.006 0.424611,0.12169 0.197669,0.11586 0.28368,0.40563 0.110584,0.37255 -0.133833,0.6872 -0.242882,0.31983 -0.765493,0.47496 -0.274241,0.0814 -0.568449,0.0955 -0.294208,0.0141 -0.503926,-0.0475 l 0.09542,-0.45623 q 0.400842,0.11749 0.856185,-0.0177 0.315637,-0.0937 0.450498,-0.24632 0.134862,-0.15264 0.08418,-0.32339 -0.03993,-0.13454 -0.156111,-0.18451 -0.116177,-0.05 -0.261461,-0.0463 -0.150459,0.005 -0.412652,0.0324 -0.348054,0.0414 -0.569821,0.034 -0.225405,-6.5e-4 -0.416364,-0.11288 -0.190959,-0.11222 -0.273898,-0.39164 -0.110585,-0.37255 0.144182,-0.69028 0.251128,-0.31101 0.79961,-0.47382 z"
         id="path2667" />
      <path
         d="m 81.030937,122.79645 q 0.09645,-0.11395 0.253052,-0.19386 0.157464,-0.0746 0.333313,-0.10291 0.4263,-0.0687 0.697689,0.12265 0.271389,0.19136 0.340084,0.61766 l 0.249879,1.55067 0.479588,-0.0773 0.06784,0.42097 -0.479588,0.0773 0.09961,0.61814 -0.511561,0.0824 -0.09961,-0.61814 -0.809971,0.13052 -0.06784,-0.42097 0.809971,-0.13052 -0.246444,-1.52935 q -0.03692,-0.22914 -0.168577,-0.33367 -0.136983,-0.10367 -0.350133,-0.0693 -0.234465,0.0378 -0.37819,0.19762 z"
         id="path2669" />
      <path
         d="m 79.290247,124.04863 0.583938,-0.56092 -0.01378,-0.78251 0.51808,-0.009 0.07053,4.00433 -0.51808,0.009 -0.04524,-2.56881 -1.534542,1.45219 -0.626013,0.011 1.18264,-1.20307 -1.351744,-1.65507 0.636806,-0.0112 z"
         id="path2671" />
      <path
         d="m 75.964091,122.45594 q 0.421344,0.0655 0.728341,0.30438 0.306998,0.23889 0.44844,0.59407 0.135281,0.35969 0.07063,0.7757 -0.06465,0.41601 -0.301888,0.71234 -0.243397,0.30084 -0.607588,0.42995 -0.36502,0.13446 -0.786364,0.069 -0.421345,-0.0655 -0.723009,-0.30354 -0.307826,-0.23356 -0.443106,-0.59325 -0.141443,-0.35518 -0.07679,-0.77119 0.06465,-0.41601 0.30805,-0.71685 0.237234,-0.29633 0.602254,-0.43078 0.359687,-0.13528 0.781032,-0.0698 z m -0.06963,0.44802 q -0.272007,-0.0423 -0.50441,0.0472 -0.238566,0.094 -0.39605,0.29896 -0.158312,0.21027 -0.203901,0.50361 -0.04559,0.29334 0.04227,0.53641 0.08703,0.24841 0.286635,0.40506 0.194275,0.15583 0.466282,0.1981 0.272007,0.0423 0.509744,-0.0464 0.232403,-0.0895 0.396049,-0.29896 0.157484,-0.20494 0.203073,-0.49828 0.04559,-0.29334 -0.04144,-0.54175 -0.09319,-0.2439 -0.286636,-0.40506 -0.199607,-0.15665 -0.471615,-0.19892 z"
         id="path2673" />
      <path
         d="m 67.245341,122.41079 2.191856,-2.12635 0.448628,0.21287 -0.184072,2.31433 1.686001,-1.60167 0.448628,0.21288 -0.265682,3.04031 -0.443752,-0.21056 0.225473,-2.41417 -1.756659,1.68763 -0.394988,-0.18742 0.215471,-2.43086 -1.751534,1.702 z"
         id="path2675" />
      <path
         d="m 63.782946,120.84476 2.426982,-2.89567 0.409531,0.34324 -2.125343,2.53579 0.653595,0.5478 -0.301639,0.35989 z"
         id="path2677" />
      <path
         d="m 62.281143,117.31152 q -0.277348,0.0541 -0.54568,-0.0672 -0.268333,-0.12135 -0.509014,-0.4126 l 0.386942,-0.31976 q 0.02335,0.0367 0.07148,0.095 0.268187,0.32454 0.618462,0.35017 0.342675,0.0249 0.700492,-0.27079 l 1.098415,-0.90771 0.330077,0.39942 -2.205151,1.8223 -0.316324,-0.38278 z"
         id="path2679" />
      <path
         d="m 60.527484,113.03685 q 0.05062,-0.031 0.139086,-0.0726 l 1.213105,1.97865 q 0.296716,-0.23889 0.34788,-0.59948 0.04374,-0.36237 -0.17631,-0.72129 -0.268011,-0.43714 -0.726137,-0.52348 l 0.135772,-0.41879 q 0.07141,0.0132 0.158698,0.042 0.08447,0.0242 0.116983,0.0359 0.421614,0.14037 0.657798,0.15385 0.240786,0.0106 0.383433,-0.0768 0.124241,-0.0762 0.140702,-0.19389 0.01646,-0.11772 -0.06253,-0.24656 -0.04514,-0.0736 -0.113285,-0.13315 -0.06637,-0.0669 -0.137033,-0.0996 l 0.171872,-0.22566 q 0.223284,0.11635 0.364343,0.34642 0.155164,0.25309 0.114819,0.48675 -0.03856,0.22624 -0.259438,0.36166 -0.285294,0.17491 -0.667412,0.099 0.07691,0.1048 0.116407,0.16922 0.236979,0.38652 0.263904,0.78154 0.02232,0.39784 -0.161409,0.73841 -0.186553,0.33597 -0.545472,0.55602 -0.354317,0.21723 -0.735531,0.23569 -0.384035,0.0139 -0.709757,-0.16631 -0.333145,-0.18195 -0.547555,-0.53167 -0.214409,-0.34972 -0.219805,-0.71995 -0.01282,-0.37201 0.179377,-0.69877 0.189374,-0.33136 0.557496,-0.55706 z m -0.144344,1.74727 q 0.194661,0.3175 0.52052,0.41528 0.323037,0.0932 0.65851,-0.0618 l -0.959199,-1.56452 q -0.285732,0.22583 -0.346401,0.56059 -0.06809,0.33298 0.12657,0.65049 z"
         id="path2681" />
      <path
         d="m 59.77917,111.10289 0.731537,0.34708 0.726774,-0.29038 0.192252,0.48117 -3.719078,1.48595 -0.192252,-0.48117 2.385823,-0.95325 -1.901989,-0.91984 -0.232304,-0.58142 1.544265,0.67915 1.068161,-1.85081 0.23631,0.59144 z"
         id="path2683" />
      <path
         d="m 57.252602,108.15802 q -0.124431,-0.58054 0.09495,-0.94772 0.218251,-0.37247 0.782958,-0.49351 l 1.688842,-0.36198 0.102939,0.48027 -0.369434,0.0792 q 0.222421,0.0848 0.378877,0.29968 0.150048,0.21072 0.219051,0.53266 0.100676,0.46971 -0.06518,0.80334 -0.166985,0.32836 -0.53642,0.40754 -0.369434,0.0792 -0.648785,-0.14247 -0.28463,-0.22051 -0.410192,-0.80633 l -0.171942,-0.8022 -0.100275,0.0215 q -0.327213,0.0701 -0.460652,0.29746 -0.133439,0.22732 -0.05426,0.59676 0.05317,0.24805 0.188512,0.46744 0.130068,0.22053 0.302354,0.35472 l -0.334742,0.29255 q -0.220541,-0.17905 -0.374739,-0.46064 -0.159475,-0.28047 -0.231872,-0.61824 z m 2.489541,-0.41216 q -0.06222,-0.29027 -0.234127,-0.47422 -0.177188,-0.18283 -0.435043,-0.22692 l -0.390545,0.0837 0.167417,0.78109 q 0.138005,0.64387 0.570771,0.55111 0.211106,-0.0452 0.297424,-0.23487 0.08632,-0.18963 0.0241,-0.4799 z"
         id="path2685" />
      <path
         d="m 59.677564,104.15007 q 0.02067,0.43671 -0.151705,0.79069 -0.172626,0.34859 -0.49232,0.55825 -0.325086,0.20991 -0.74562,0.22981 -0.420534,0.0199 -0.758599,-0.15862 -0.343457,-0.17828 -0.542841,-0.50926 -0.205031,-0.33613 -0.225698,-0.77284 -0.01837,-0.38818 0.123693,-0.6975 0.141808,-0.31472 0.430429,-0.49588 l 0.272025,0.38158 q -0.198497,0.14448 -0.291494,0.34881 -0.093,0.20434 -0.08152,0.44695 0.01327,0.28036 0.147988,0.50093 0.134465,0.21518 0.372422,0.33361 0.23231,0.11328 0.52884,0.0992 0.301922,-0.0143 0.527887,-0.14926 0.220318,-0.14011 0.33386,-0.36703 0.113288,-0.23231 0.10002,-0.51267 -0.01148,-0.24262 -0.123361,-0.43725 -0.111878,-0.19464 -0.323133,-0.31973 l 0.229381,-0.40531 q 0.304441,0.1531 0.480729,0.45276 0.170641,0.29452 0.189012,0.68271 z"
         id="path2687" />
      <path
         d="m 56.949246,100.46803 q 0.06925,-0.540726 0.425583,-0.816143 0.35166,-0.281456 0.956636,-0.203973 l 1.632899,0.209136 -0.06583,0.51396 -1.574008,-0.201591 q -0.41224,-0.0528 -0.646408,0.118551 -0.234167,0.17135 -0.28148,0.54076 -0.05348,0.41759 0.161933,0.69005 0.210063,0.27178 0.665134,0.33006 l 1.461578,0.18719 -0.06583,0.51397 -3.972496,-0.50879 0.06583,-0.51396 1.536532,0.19679 q -0.182872,-0.18667 -0.262388,-0.45805 -0.07883,-0.27673 -0.03769,-0.59796 z"
         id="path2689" />
    </g>
  </g>
</svg>
